<svg width="512" height="512" viewBox="0 0 512 512" fill="none" xmlns="http://www.w3.org/2000/svg">
<g clip-path="url(#clip0_1243_70)">
<path d="M203.034 149.893V61.7933C203.034 47.1395 177.346 35.3105 145.655 35.3105C113.964 35.3105 88.2759 47.1395 88.2759 61.7933V158.985C58.6152 160.044 35.3103 171.432 35.3103 185.38V416.927C14.5655 420.9 0 430.345 0 441.38V485.517C0 500.171 25.6883 512 57.3793 512C89.0703 512 114.759 500.171 114.759 485.517V467.862C114.759 482.516 140.447 494.345 172.138 494.345C203.829 494.345 229.517 482.516 229.517 467.862L233.931 353.104L203.034 149.893Z" fill="#F29C1F"/>
<path d="M481.342 117.893C480.706 116.94 468.445 99.4256 432.79 91.4102C441.911 83.9107 447.304 72.8043 447.559 60.9991C447.559 40.1837 429.85 22.0077 405.46 17.7881C400.717 17.0772 396.274 20.2831 395.454 25.0082C394.633 29.7334 397.736 34.2492 402.441 35.1784C418.313 37.9591 429.903 48.7906 429.903 60.9991C429.903 75.4587 414.234 87.3406 394.593 87.4819C386.864 87.5721 379.259 85.5417 372.604 81.6115C368.438 79.0788 363.007 80.4028 360.474 84.5688C357.942 88.7348 359.266 94.1652 363.432 96.6979C372.784 102.233 383.46 105.134 394.328 105.093C394.416 105.093 394.478 105.137 394.558 105.137C449.404 105.137 466.273 127.206 466.732 127.797C468.501 130.409 471.529 131.878 474.675 131.651C477.822 131.425 480.608 129.537 481.985 126.699C483.362 123.861 483.111 120.504 481.342 117.893Z" fill="#F3D55B"/>
<path d="M398.918 459.034H229.517V353.103C229.517 338.449 203.829 326.62 172.138 326.62C164.733 326.59 157.343 327.27 150.069 328.651V232.518C162.927 202.18 180.836 174.242 203.034 149.892V149.804C221.461 129.21 243.4 112.053 267.829 99.1336V99.0453C275.377 103.639 284.063 106.025 292.899 105.931H342.334C351.205 105.993 359.918 103.578 367.492 98.957C386.736 108.491 473.512 158.278 504.85 291.31C540.16 441.379 434.229 459.034 398.918 459.034Z" fill="#A56A43"/>
<path d="M398.918 432.551C394.043 432.551 390.091 428.599 390.091 423.724C390.091 418.848 394.043 414.896 398.918 414.896C405.301 414.896 437.981 413.792 455.203 392.041C463.347 380.534 467.69 366.768 467.624 352.67C467.917 347.828 472.018 344.104 476.866 344.275C479.205 344.387 481.404 345.424 482.978 347.157C484.553 348.891 485.374 351.179 485.261 353.518C485.186 371.306 479.516 388.619 469.054 403.005C446.773 431.13 406.722 432.551 398.918 432.551Z" fill="#FDD7AD"/>
<path d="M406.069 10.3283C406.157 29.749 402.273 72.1214 371.2 96.3972C370.036 97.3502 368.796 98.2064 367.492 98.9572C359.919 103.578 351.205 105.993 342.334 105.931H292.899C284.063 106.025 275.377 103.64 267.829 99.0455C266.509 98.2437 265.241 97.3592 264.033 96.3972C232.96 72.1214 229.164 29.749 229.164 10.3283C229.179 7.39236 230.652 4.65583 233.095 3.02725C235.538 1.39868 238.63 1.0912 241.346 2.2069C252.645 6.97379 256.441 17.6552 273.567 17.6552C295.548 17.6552 295.548 0 317.528 0C339.509 0 339.597 17.6552 361.666 17.6552C378.792 17.6552 382.588 6.88552 393.887 2.2069C396.603 1.0912 399.695 1.39868 402.138 3.02725C404.581 4.65583 406.054 7.39236 406.069 10.3283Z" fill="#805333"/>
<path d="M321.766 105.772C332.042 91.3301 339.775 75.2382 344.629 58.1911C345.946 53.4864 350.827 50.7396 355.531 52.056C360.236 53.3723 362.983 58.2533 361.666 62.958C356.852 79.1242 349.874 94.5651 340.922 108.861L370.406 136.404C373.965 139.743 374.143 145.336 370.803 148.895C367.463 152.454 361.871 152.631 358.312 149.292L326.621 119.719V148.85C326.621 153.726 322.669 157.678 317.793 157.678C312.918 157.678 308.966 153.726 308.966 148.85V119.719L277.363 149.292C275.735 150.816 273.59 151.668 271.36 151.675C268.888 151.667 266.527 150.646 264.828 148.85C261.553 145.276 261.75 139.737 265.269 136.404L294.842 108.861C285.856 94.5715 278.848 79.1299 274.008 62.958C273.386 60.6987 273.688 58.2847 274.847 56.248C276.006 54.2113 277.928 52.719 280.188 52.1001C282.436 51.4475 284.852 51.725 286.893 52.8702C288.935 54.0154 290.431 55.9325 291.046 58.1911C295.962 75.2359 303.787 91.303 314.174 105.684L321.766 105.772Z" fill="#603E26"/>
<path d="M150.069 185.379C150.069 200.033 124.381 211.862 92.6899 211.862C60.9988 211.862 35.3105 200.033 35.3105 185.379C35.3105 171.432 58.6154 160.044 88.2761 158.985C89.7768 158.896 91.1892 158.896 92.6899 158.896C124.381 158.896 150.069 170.725 150.069 185.379Z" fill="#F0C419"/>
<path d="M203.034 61.793V149.892C180.836 174.242 162.927 202.18 150.069 232.518V185.379C150.069 170.725 124.381 158.896 92.6897 158.896C91.189 158.896 89.7766 158.896 88.2759 158.985V61.793C88.2759 76.4468 113.964 88.2757 145.655 88.2757C177.346 88.2757 203.034 76.4468 203.034 61.793Z" fill="#E57E25"/>
<path d="M114.759 441.38C114.759 456.034 89.0703 467.863 57.3793 467.863C25.6883 467.863 0 456.034 0 441.38C0 430.346 14.5655 420.9 35.3103 416.928C42.5848 415.547 49.975 414.867 57.3793 414.897C89.0703 414.897 114.759 426.726 114.759 441.38Z" fill="#F9EAB0"/>
<path d="M114.759 441.379V485.517C114.759 500.171 89.0703 512 57.3793 512C25.6883 512 0 500.171 0 485.517V441.379C0 456.033 25.6883 467.862 57.3793 467.862C89.0703 467.862 114.759 456.033 114.759 441.379Z" fill="#F3D55B"/>
<path d="M229.517 353.103C229.517 367.757 203.829 379.586 172.138 379.586C140.447 379.586 114.759 367.757 114.759 353.103C114.759 342.068 129.324 332.623 150.069 328.65C157.344 327.27 164.734 326.59 172.138 326.62C203.829 326.62 229.517 338.449 229.517 353.103Z" fill="#F3D55B"/>
<path d="M229.517 353.104V467.862C229.517 482.516 203.829 494.345 172.138 494.345C140.447 494.345 114.759 482.516 114.759 467.862V353.104C114.759 367.757 140.447 379.586 172.138 379.586C203.829 379.586 229.517 367.757 229.517 353.104Z" fill="#F0C419"/>
<path d="M361.918 256.69L358.295 269.048H289.261L292.884 256.69H361.918ZM329.531 340L290.54 292.273L290.327 283.324H309.716C314.759 283.324 319.055 282.614 322.607 281.193C326.158 279.737 328.874 277.571 330.756 274.695C332.638 271.783 333.58 268.125 333.58 263.722C333.58 257.223 331.626 252.127 327.72 248.434C323.814 244.705 317.813 242.841 309.716 242.841H289.261L292.884 230.909H309.716C318.381 230.909 325.483 232.347 331.023 235.224C336.598 238.065 340.717 241.971 343.381 246.942C346.08 251.879 347.429 257.472 347.429 263.722C347.429 269.368 346.186 274.57 343.7 279.329C341.25 284.052 337.308 287.852 331.875 290.728C326.477 293.604 319.339 295.043 310.462 295.043H310.142L346.151 339.148V340H329.531ZM361.918 230.909L358.295 243.267L303.963 242.841L307.585 230.909H361.918Z" fill="#FDD7AD"/>
</g>
<defs>
<clipPath id="clip0_1243_70">
<rect width="512" height="512" fill="white"/>
</clipPath>
</defs>
</svg>
